<svg width="327" height="71" viewBox="0 0 327 71" fill="none" xmlns="http://www.w3.org/2000/svg">
<path d="M28.254 1.8C36.382 1.8 42.43 3.208 46.398 6.024C50.366 8.84 52.35 13.96 52.35 21.384C52.35 27.592 50.43 32.776 46.59 36.936C42.75 41.032 36.606 43.08 28.158 43.08C25.406 43.08 23.23 43.048 21.63 42.984L21.438 59.88L28.446 60.648C28.446 63.464 27.71 66.248 26.238 69H2.526L1.662 63.72C4.99 62.376 7.678 61.448 9.726 60.936C9.726 60.744 9.438 43.816 8.862 10.152C7.838 9.896 5.182 9.064 0.893999 7.65599L1.662 1.8H28.254ZM26.142 33.96C30.43 33.896 33.758 32.712 36.126 30.408C38.494 28.104 39.678 25.128 39.678 21.48C39.678 17.832 38.622 15.24 36.51 13.704C34.462 12.104 31.23 11.304 26.814 11.304C25.086 11.304 23.454 11.336 21.918 11.4C21.79 21.512 21.726 29.064 21.726 34.056L26.142 33.96ZM79.6553 60.744C81.8313 60.744 86.2473 59.24 92.9033 56.232C94.3113 58.28 95.3673 60.648 96.0713 63.336C92.5513 65.512 89.0953 67.208 85.7033 68.424C82.3753 69.576 80.0073 70.152 78.5993 70.152C70.8553 70.152 64.9673 68.008 60.9353 63.72C56.9672 59.432 54.9832 53.352 54.9832 45.48C54.9832 37.544 56.9672 31.176 60.9353 26.376C64.9032 21.512 70.7913 19.08 78.5993 19.08C84.8073 19.08 89.5433 21.096 92.8073 25.128C96.0713 29.16 97.7033 34.408 97.7033 40.872C97.7033 42.216 96.9353 43.752 95.3993 45.48L67.7513 45C67.8793 50.12 68.8393 54.024 70.6313 56.712C72.4233 59.4 75.4313 60.744 79.6553 60.744ZM77.7353 27.048C75.3033 27.048 73.0313 27.528 70.9193 28.488C69.4473 31.56 68.5193 34.408 68.1352 37.032C73.1273 36.84 78.7913 36.712 85.1272 36.648C84.8073 30.248 82.3433 27.048 77.7353 27.048ZM113.804 70.152L111.692 70.056C111.308 69.352 110.796 68.04 110.156 66.12C109.516 64.2 109.164 62.76 109.1 61.8C108.78 55.464 108.428 44.488 108.044 28.872H101.324L101.612 23.4C103.084 22.376 104.844 21.448 106.892 20.616L114.668 8.328C117.164 8.584 119.116 9.256 120.524 10.344L120.428 19.464C124.46 19.592 128.204 19.976 131.66 20.616C131.66 23.176 130.86 25.928 129.26 28.872H120.332C120.076 42.312 119.916 52.392 119.852 59.112C122.412 59.368 125.9 60.104 130.316 61.32L130.22 66.312C129.132 67.016 126.7 67.848 122.924 68.808C119.212 69.704 116.172 70.152 113.804 70.152Z" fill="white"/>
<path d="M177.323 23.496L174.347 23.4L171.563 11.88C167.851 11.24 165.067 10.92 163.211 10.92C159.563 10.92 155.467 11.656 150.923 13.128C149.579 15.624 148.523 18.824 147.755 22.728C146.987 26.632 146.603 30.312 146.603 33.768C146.603 51.432 151.691 60.264 161.867 60.264C166.219 60.264 169.675 59.624 172.235 58.344L174.251 46.632C178.283 46.632 181.355 46.856 183.467 47.304C184.491 54.28 185.003 59.944 185.003 64.296C183.467 65.448 180.363 66.728 175.691 68.136C171.083 69.544 166.539 70.248 162.059 70.248C142.987 70.248 133.451 58.472 133.451 34.92C133.451 23.72 135.755 15.208 140.363 9.384C145.035 3.56 152.459 0.647999 162.635 0.647999C167.691 0.647999 172.171 1.384 176.075 2.856C179.531 4.136 182.475 5.544 184.907 7.08C184.907 11.432 184.427 16.68 183.467 22.824C181.675 23.272 179.627 23.496 177.323 23.496Z" fill="#ED6E9F"/>
<path d="M208.218 70.152C202.778 70.152 198.554 69.032 195.546 66.792C192.602 64.552 191.13 60.776 191.13 55.464C191.13 50.408 192.89 46.28 196.41 43.08C198.458 41.224 201.306 40.136 204.954 39.816C208.602 39.496 213.626 39.336 220.026 39.336V37.8C220.026 33.896 219.386 31.048 218.106 29.256C216.89 27.4 214.714 26.472 211.578 26.472C209.978 26.472 208.538 26.792 207.258 27.432L204.954 35.784L197.85 35.592C196.25 33.16 195.386 29.288 195.258 23.976C196.538 23.336 199.546 22.376 204.282 21.096C209.018 19.752 212.058 19.08 213.402 19.08C220.314 19.08 225.338 20.52 228.474 23.4C231.61 26.216 233.178 30.728 233.178 36.936C233.178 43.08 232.89 51.208 232.314 61.32C235.962 61.64 238.778 62.184 240.762 62.952C240.826 63.72 240.858 64.648 240.858 65.736L240.762 67.848C236.154 69.384 231.514 70.152 226.842 70.152C225.626 70.152 224.73 70.12 224.154 70.056C223.194 68.136 222.618 65.832 222.426 63.144H221.946C220.73 64.296 218.586 65.768 215.514 67.56C212.506 69.288 210.074 70.152 208.218 70.152ZM203.418 56.04C203.418 58.152 204.058 59.72 205.338 60.744C206.682 61.704 208.186 62.184 209.85 62.184C211.514 62.184 213.498 61.448 215.802 59.976C218.106 58.44 219.962 57.064 221.37 55.848L220.89 47.016C215.834 47.272 212.026 47.752 209.466 48.456C205.434 49.288 203.418 51.816 203.418 56.04Z" fill="#389BF2"/>
<path d="M269.184 29.448C269.056 29.128 268.416 28.968 267.264 28.968C266.112 28.968 264.128 29.832 261.312 31.56C261.056 44.104 260.896 53.512 260.832 59.784L268.32 60.744C268.32 63.496 267.584 66.248 266.112 69H242.208L241.344 63.72C245.312 62.248 248.192 61.288 249.984 60.84L248.928 29.736C245.6 29.48 242.816 29 240.576 28.296L241.248 21.384C242.976 20.616 249.216 20.104 259.968 19.848C260.544 20.424 260.832 21.544 260.832 23.208C266.464 20.456 270.016 19.08 271.488 19.08C273.024 19.08 274.88 19.464 277.056 20.232C279.296 20.936 280.992 21.704 282.144 22.536V24.168C282.144 29.416 281.504 34.28 280.224 38.76C279.136 39.208 277.696 39.432 275.904 39.432C274.112 39.432 272.448 39.336 270.912 39.144C270.72 38.312 270.144 35.08 269.184 29.448Z" fill="#00E096"/>
<path d="M308.469 60.744C310.645 60.744 315.061 59.24 321.717 56.232C323.125 58.28 324.181 60.648 324.885 63.336C321.365 65.512 317.909 67.208 314.517 68.424C311.189 69.576 308.821 70.152 307.413 70.152C299.669 70.152 293.781 68.008 289.749 63.72C285.781 59.432 283.797 53.352 283.797 45.48C283.797 37.544 285.781 31.176 289.749 26.376C293.717 21.512 299.605 19.08 307.413 19.08C313.621 19.08 318.357 21.096 321.621 25.128C324.885 29.16 326.517 34.408 326.517 40.872C326.517 42.216 325.749 43.752 324.213 45.48L296.565 45C296.693 50.12 297.653 54.024 299.445 56.712C301.237 59.4 304.245 60.744 308.469 60.744ZM306.549 27.048C304.117 27.048 301.845 27.528 299.733 28.488C298.261 31.56 297.333 34.408 296.949 37.032C301.941 36.84 307.605 36.712 313.941 36.648C313.621 30.248 311.157 27.048 306.549 27.048Z" fill="#56A7F0"/>
</svg>
